<?xml version="1.0" encoding="UTF-8"?>
<!DOCTYPE svg PUBLIC "-//W3C//DTD SVG 1.1//EN" "http://www.w3.org/Graphics/SVG/1.1/DTD/svg11.dtd">
<!-- Creator: CorelDRAW X8 -->
<svg xmlns="http://www.w3.org/2000/svg" xml:space="preserve" width="1.85546in" height="0.667189in" version="1.1" style="shape-rendering:geometricPrecision; text-rendering:geometricPrecision; image-rendering:optimizeQuality; fill-rule:evenodd; clip-rule:evenodd"
viewBox="0 0 1286 462"
 xmlns:xlink="http://www.w3.org/1999/xlink">
 <defs>
  <style type="text/css">
   <![CDATA[
    .fil4 {fill:#3BB2D0}
    .fil5 {fill:#3C85B8}
    .fil3 {fill:#3FAFA1}
    .fil0 {fill:#404040}
    .fil1 {fill:#E65E5E}
    .fil2 {fill:#FA886D}
   ]]>
  </style>
 </defs>
 <g id="Layer_x0020_1">
  <metadata id="CorelCorpID_0Corel-Layer"/>
  <g id="_542564108016">
   <path class="fil0" d="M329 110l0 155c0,59 10,107 -36,152 -33,31 -82,46 -131,45 -51,0 -102,-17 -133,-51 -36,-40 -28,-81 -28,-130l0 -171 81 -54 0 239c0,18 -6,60 7,75 17,18 50,25 74,25 24,0 56,-6 74,-24 5,-5 9,-9 10,-17 5,-19 1,-54 1,-75l0 -223 81 54z"/>
   <path class="fil0" d="M618 131l0 133c0,39 6,72 -25,102 -22,20 -55,31 -88,30 -34,0 -69,-11 -89,-34 -24,-27 -20,-55 -20,-88l0 -143 55 0 0 153c0,12 -4,40 5,50 11,12 34,17 50,17 16,0 37,-4 49,-16 4,-3 6,-6 8,-11 3,-14 0,-37 0,-51l0 -142 55 0zm613 1l55 0 0 254 -55 0 0 -254zm-483 100c26,0 47,27 47,61 0,33 -21,60 -47,60 -27,0 -48,-27 -48,-60 0,-34 21,-61 48,-61zm-97 -32l46 0 1 28c15,-18 36,-29 60,-29 46,0 83,42 83,94 0,51 -37,93 -83,93 -24,0 -45,-11 -60,-29l0 97 -47 0 0 -254zm205 146l0 0 101 -106 -101 0 0 -40 157 0 0 40 -101 106 101 0 0 40 -157 0 0 -40zm358 -40c1,-27 -4,-48 -14,-64 -16,-27 -48,-41 -79,-42 -23,0 -46,7 -63,22 -18,16 -27,40 -30,65 -1,22 3,45 14,63 14,24 46,36 77,37 43,2 79,-14 91,-56l-41 0c-8,17 -23,26 -48,24 -30,-2 -44,-21 -46,-50l139 1zm-139 -29l91 0c-8,-62 -84,-55 -91,0z"/>
   <polygon class="fil1" points="24,94 165,1 165,0 165,0 166,0 166,1 306,94 306,94 248,56 248,136 165,81 82,136 82,56 24,94 "/>
   <polygon class="fil2" points="82,135 165,80 165,79 165,79 166,79 166,80 248,135 248,215 165,160 82,215 "/>
   <path class="fil3" d="M82 214l83 -55 0 -1 0 0 1 0 0 1 82 55 0 65c0,5 1,10 1,15l-84 -55 -83 55 0 -80z"/>
   <path class="fil4" d="M82 293l83 -55 0 -1 0 0 1 0 0 1 83 55c0,20 2,45 -2,61 -1,6 -3,10 -7,14l-75 -50 -77 51c-12,-16 -6,-56 -6,-74l0 -2zm224 109l0 9 -5 -3c2,-2 3,-4 5,-6zm-278 7l-4 2 0 -6c2,2 3,3 4,4z"/>
   <path class="fil5" d="M88 368l77 -51 0 -1 0 0 1 0 0 1 75 50c-1,1 -3,3 -4,4 -18,18 -50,24 -74,24 -24,0 -57,-7 -74,-25 0,-1 -1,-1 -1,-2z"/>
  </g>
 </g>
</svg>
